# xmcd
#
# Track frame offsets: 
#        150
#        15294
#        34486
#        51257
#        69338
#        90193
#        105137
#        132151
#        154742
#        190750
#
# Disc length: 2986 seconds
#
# Revision: 0
# Processed by: cddbd v1.5.2PL0 Copyright (c) Steve Scherf et al.
# Submitted via: ExactAudioCopy v0.99pb4
#
DISCID=6d0ba80a
DTITLE=Norman Connors - This Is Your Life
DYEAR=1977
DGENRE=Soul
TTITLE0=Stella
TTITLE1=This Is Your Life
TTITLE2=Wouldn't You Like To See
TTITLE3=Listen
TTITLE4=Say You Love Me
TTITLE5=Captain Connors
TTITLE6=You Make Me Feel Brand New
TTITLE7=Butterfly
TTITLE8=The Creator
TTITLE9=Captain Connors 12"
EXTD=
EXTT0=
EXTT1=
EXTT2=
EXTT3=
EXTT4=
EXTT5=
EXTT6=
EXTT7=
EXTT8=
EXTT9=
PLAYORDER=
